<?xml version="1.0" encoding="UTF-8"?>
<svg width="120" height="40" viewBox="0 0 120 40" fill="none" xmlns="http://www.w3.org/2000/svg">
  <path d="M20 10C14.477 10 10 14.477 10 20C10 25.523 14.477 30 20 30C25.523 30 30 25.523 30 20C30 14.477 25.523 10 20 10Z" fill="#039BE5"/>
  <path d="M15 19.5C15 18.672 15.672 18 16.5 18C17.328 18 18 18.672 18 19.5C18 20.328 17.328 21 16.5 21C15.672 21 15 20.328 15 19.5Z" fill="white"/>
  <path d="M20 24C18.895 24 18 23.105 18 22H22C22 23.105 21.105 24 20 24Z" fill="white"/>
  <path d="M22 19.5C22 18.672 22.672 18 23.5 18C24.328 18 25 18.672 25 19.5C25 20.328 24.328 21 23.5 21C22.672 21 22 20.328 22 19.5Z" fill="white"/>
  <path d="M40 18H44V22H40V18Z" fill="#039BE5"/>
  <path d="M46 15L53 15L53 17L48 17L48 19L52 19L52 21L48 21L48 23L53 23L53 25L46 25L46 15Z" fill="#333333"/>
  <path d="M56 15L60 15C61.657 15 63 16.343 63 18L63 22C63 23.657 61.657 25 60 25L56 25L56 15ZM58 17L58 23L60 23C60.552 23 61 22.552 61 22L61 18C61 17.448 60.552 17 60 17L58 17Z" fill="#333333"/>
  <path d="M65 15L67 15L67 23L72 23L72 25L65 25L65 15Z" fill="#333333"/>
  <path d="M74 15L81 15L81 17L76 17L76 19L80 19L80 21L76 21L76 23L81 23L81 25L74 25L74 15Z" fill="#333333"/>
  <text x="86" y="22" font-family="Arial" font-size="10" fill="#039BE5">🌿</text>
</svg> 